<svg xmlns="http://www.w3.org/2000/svg" viewBox="0 0 900 1200" role="img" aria-label="TRIONN Pulse Low editorial product image">
<defs><linearGradient id="bg" x1="0" y1="0" x2="1" y2="1"><stop stop-color="#c3b5a8"/><stop offset="1" stop-color="#f05e3b" stop-opacity=".28"/></linearGradient><filter id="shadow"><feDropShadow dx="0" dy="35" stdDeviation="28" flood-opacity=".22"/></filter></defs>
<rect width="900" height="1200" fill="url(#bg)"/>
<circle cx="220" cy="250" r="180" fill="#f05e3b" opacity=".24"/>
<g transform="translate(900 0) scale(-1 1)" filter="url(#shadow)"><path d="M158 704 C244 632 344 590 476 579 C553 573 607 612 666 669 L743 741 C783 779 754 851 699 856 H212 C151 856 122 785 161 738 Z" fill="#211d1b"/>
<path d="M299 627 C366 664 431 682 513 686 C581 689 635 722 699 778" fill="none" stroke="#f05e3b" stroke-width="17" stroke-linecap="round"/>
<path d="M196 813 H724" stroke="#f05e3b" stroke-width="26" stroke-linecap="round"/>
<circle cx="404" cy="649" r="10" fill="#f05e3b"/><circle cx="438" cy="661" r="10" fill="#f05e3b"/><circle cx="472" cy="670" r="10" fill="#f05e3b"/></g>
<path d="M65 1040 H835" stroke="#211d1b" opacity=".18"/>
<text x="65" y="1090" font-family="Arial, sans-serif" font-size="22" fill="#211d1b">TRIONN / PULSE LOW / B</text>
<text x="65" y="1125" font-family="Arial, sans-serif" font-size="13" letter-spacing="3" fill="#211d1b" opacity=".55">FOOTWEAR STUDY 14</text>
</svg>