<svg xmlns="http://www.w3.org/2000/svg" viewBox="0 0 900 1200" role="img" aria-label="TRIONN Frame Derby editorial product image">
<defs><linearGradient id="bg" x1="0" y1="0" x2="1" y2="1"><stop stop-color="#ded9cf"/><stop offset="1" stop-color="#b1ff5a" stop-opacity=".28"/></linearGradient><filter id="shadow"><feDropShadow dx="0" dy="35" stdDeviation="28" flood-opacity=".22"/></filter></defs>
<rect width="900" height="1200" fill="url(#bg)"/>
<circle cx="680" cy="250" r="180" fill="#b1ff5a" opacity=".24"/>
<g transform="" filter="url(#shadow)"><path d="M180 690 C242 633 344 581 474 566 C548 558 596 603 648 654 L733 736 C774 774 748 844 693 852 H214 C155 852 126 780 165 736 Z" fill="#181919"/>
<path d="M355 600 L532 660" stroke="#b1ff5a" stroke-width="12" stroke-linecap="round"/>
<path d="M331 632 L508 692 M310 666 L485 725" stroke="#b1ff5a" stroke-width="8" stroke-linecap="round"/>
<path d="M165 807 H724" stroke="#b1ff5a" stroke-width="24" stroke-linecap="round"/></g>
<path d="M65 1040 H835" stroke="#181919" opacity=".18"/>
<text x="65" y="1090" font-family="Arial, sans-serif" font-size="22" fill="#181919">TRIONN / FRAME DERBY / A</text>
<text x="65" y="1125" font-family="Arial, sans-serif" font-size="13" letter-spacing="3" fill="#181919" opacity=".55">FOOTWEAR STUDY 15</text>
</svg>