<svg xmlns="http://www.w3.org/2000/svg" viewBox="0 0 1600 1000" role="img" aria-labelledby="t d"><title id="t">Softbridge product team studio</title><desc id="d">Abstract editorial illustration of a product team working in a bright studio.</desc><defs><linearGradient id="g" x1="0" y1="0" x2="1" y2="1"><stop stop-color="#d9d1c2"/><stop offset="1" stop-color="#8ba79c"/></linearGradient><filter id="grain"><feTurbulence baseFrequency=".8" numOctaves="2" stitchTiles="stitch" type="fractalNoise"/><feColorMatrix values="1 0 0 0 0 0 1 0 0 0 0 0 1 0 0 0 0 0 .08 0"/></filter></defs><rect width="1600" height="1000" fill="url(#g)"/><rect x="0" y="0" width="1600" height="1000" fill="#fff" opacity=".09" filter="url(#grain)"/><rect x="105" y="115" width="500" height="610" rx="32" fill="#f4f0e6" opacity=".72"/><rect x="690" y="95" width="760" height="700" rx="36" fill="#e9e2d7" opacity=".54"/><rect x="180" y="530" width="1120" height="52" rx="26" fill="#264c3d"/><rect x="260" y="580" width="34" height="235" fill="#264c3d"/><rect x="1190" y="580" width="34" height="235" fill="#264c3d"/><circle cx="470" cy="410" r="90" fill="#c87959"/><path d="M390 505c35-94 130-93 170 0v135H390z" fill="#f1eadf"/><rect x="435" y="355" width="72" height="110" rx="36" fill="#4c2d23"/><circle cx="910" cy="395" r="86" fill="#b6755b"/><path d="M826 492c38-87 133-91 174 0v148H826z" fill="#ddeeff"/><path d="M840 335c40-72 141-62 157 18-53 13-112 10-157-18z" fill="#402b23"/><rect x="615" y="430" width="260" height="155" rx="16" fill="#062a1f"/><rect x="637" y="452" width="216" height="105" rx="8" fill="#dfff3f"/><path d="M1010 455h220l-25 126H985z" fill="#062a1f"/><rect x="1030" y="478" width="155" height="12" rx="6" fill="#dfff3f" opacity=".8"/><rect x="1030" y="506" width="122" height="12" rx="6" fill="#f4f0e6" opacity=".65"/><circle cx="1370" cy="210" r="95" fill="#dfff3f" opacity=".62"/><path d="M1368 116c-70 74-86 145-48 215" fill="none" stroke="#062a1f" stroke-width="20" stroke-linecap="round" opacity=".72"/><path d="M75 865h1450" stroke="#f4f0e6" stroke-width="3" opacity=".5"/></svg>