<svg xmlns="http://www.w3.org/2000/svg" viewBox="0 0 1400 900"><rect width="1400" height="900" rx="56" fill="#2d0b59"/><rect x="90" y="86" width="1220" height="728" rx="40" fill="#f7f2ff"/><rect x="90" y="86" width="1220" height="86" rx="40" fill="#fff"/><circle cx="145" cy="129" r="10" fill="#f0442e"/><circle cx="178" cy="129" r="10" fill="#d6b73f"/><circle cx="211" cy="129" r="10" fill="#42b46a"/><rect x="260" y="116" width="198" height="25" rx="12" fill="#2d0b59"/><rect x="140" y="222" width="258" height="520" rx="28" fill="#2d0b59"/><rect x="180" y="276" width="122" height="17" rx="8" fill="#dfff3f"/><rect x="180" y="326" width="166" height="12" rx="6" fill="#fff" opacity=".48"/><rect x="180" y="361" width="128" height="12" rx="6" fill="#fff" opacity=".32"/><rect x="180" y="396" width="142" height="12" rx="6" fill="#fff" opacity=".32"/><rect x="440" y="222" width="820" height="242" rx="28" fill="#efe9ff"/><rect x="486" y="276" width="210" height="18" rx="9" fill="#2d0b59"/><rect x="486" y="322" width="480" height="14" rx="7" fill="#2d0b59" opacity=".24"/><path d="M500 410c82-68 161-74 242-32 92 48 166 21 247-67 86-94 164-88 236-22" fill="none" stroke="#f0442e" stroke-width="18" stroke-linecap="round"/><circle cx="500" cy="410" r="13" fill="#f0442e"/><circle cx="742" cy="378" r="13" fill="#f0442e"/><circle cx="989" cy="311" r="13" fill="#f0442e"/><circle cx="1225" cy="289" r="13" fill="#f0442e"/><rect x="440" y="500" width="390" height="242" rx="28" fill="#c9f7d5"/><rect x="870" y="500" width="390" height="242" rx="28" fill="#fff0ec"/><rect x="484" y="548" width="120" height="16" rx="8" fill="#062a1f"/><rect x="484" y="590" width="250" height="72" rx="18" fill="#fff"/><rect x="914" y="548" width="145" height="16" rx="8" fill="#f0442e"/><circle cx="1066" cy="636" r="61" fill="none" stroke="#f0442e" stroke-width="24" stroke-dasharray="270 120" transform="rotate(-90 1066 636)"/></svg>