<svg xmlns="http://www.w3.org/2000/svg" viewBox="0 0 1200 900"><rect width="1200" height="900" fill="#e8dfcf"/><path d="M0 670C180 525 288 470 465 453c193-18 370 37 735 236v211H0z" fill="#062a1f"/><rect x="120" y="120" width="960" height="520" rx="36" fill="#f4f0e6"/><circle cx="345" cy="330" r="92" fill="#be7258"/><path d="M258 435c45-115 137-115 182 0v144H258z" fill="#dbeeff"/><path d="M270 280c42-80 143-65 165 19-57 16-112 10-165-19z" fill="#34231e"/><circle cx="830" cy="326" r="92" fill="#c98968"/><path d="M742 432c44-112 140-112 184 0v146H742z" fill="#c9f7d5"/><path d="M748 278c50-66 144-58 171 25-55 9-115 3-171-25z" fill="#5b3b2f"/><rect x="432" y="330" width="332" height="205" rx="22" fill="#062a1f"/><rect x="458" y="356" width="280" height="145" rx="12" fill="#efe9ff"/><rect x="486" y="388" width="128" height="16" rx="8" fill="#9d7a1e"/><rect x="486" y="425" width="202" height="13" rx="6" fill="#0a2018" opacity=".35"/><rect x="486" y="453" width="176" height="13" rx="6" fill="#0a2018" opacity=".22"/><path d="M600 535v52m-88 0h176" stroke="#062a1f" stroke-width="18" stroke-linecap="round"/></svg>