<svg xmlns="http://www.w3.org/2000/svg" viewBox="0 0 1200 800"><rect width="1200" height="800" fill="#c9f7d5"/><rect x="90" y="80" width="1020" height="640" rx="42" fill="#f4f0e6"/><rect x="130" y="120" width="940" height="65" rx="22" fill="#062a1f"/><rect x="165" y="144" width="150" height="16" rx="8" fill="#dfff3f"/><rect x="130" y="225" width="275" height="430" rx="26" fill="#062a1f"/><rect x="170" y="275" width="148" height="14" rx="7" fill="#fff" opacity=".75"/><rect x="170" y="320" width="190" height="11" rx="5" fill="#fff" opacity=".28"/><rect x="170" y="350" width="150" height="11" rx="5" fill="#fff" opacity=".28"/><rect x="445" y="225" width="625" height="200" rx="26" fill="#efe9ff"/><rect x="485" y="270" width="175" height="15" rx="7" fill="#0a2018"/><path d="M492 370l92-54 84 30 118-78 122 44 102-58" fill="none" stroke="#f0442e" stroke-width="15" stroke-linecap="round" stroke-linejoin="round"/><rect x="445" y="455" width="295" height="200" rx="26" fill="#dbeeff"/><rect x="775" y="455" width="295" height="200" rx="26" fill="#fff0ec"/></svg>