<svg xmlns="http://www.w3.org/2000/svg" viewBox="0 0 1600 1000">
<defs>
 <linearGradient id="bg" x1="0" y1="0" x2="1" y2="1"><stop stop-color="#071d18"/><stop offset=".55" stop-color="#123b31"/><stop offset="1" stop-color="#06130f"/></linearGradient>
 <linearGradient id="glass" x1="0" y1="0" x2="1" y2="1"><stop stop-color="#ffffff" stop-opacity=".18"/><stop offset="1" stop-color="#ffffff" stop-opacity=".03"/></linearGradient>
 <linearGradient id="lime" x1="0" y1="0" x2="1" y2="0"><stop stop-color="#d7ff52"/><stop offset="1" stop-color="#9fd625"/></linearGradient>
 <filter id="blur"><feGaussianBlur stdDeviation="42"/></filter>
 <filter id="shadow"><feDropShadow dx="0" dy="28" stdDeviation="30" flood-color="#000" flood-opacity=".38"/></filter>
</defs>
<rect width="1600" height="1000" fill="url(#bg)"/>
<circle cx="1260" cy="210" r="230" fill="#d7ff52" opacity=".12" filter="url(#blur)"/>
<circle cx="360" cy="760" r="260" fill="#56b89a" opacity=".12" filter="url(#blur)"/>
<g opacity=".24" stroke="#a4c5b7" stroke-width="1"><path d="M0 180H1600M0 340H1600M0 500H1600M0 660H1600M0 820H1600"/><path d="M180 0V1000M420 0V1000M660 0V1000M900 0V1000M1140 0V1000M1380 0V1000"/></g>
<g filter="url(#shadow)">
 <rect x="875" y="120" width="610" height="740" rx="34" fill="#081713" stroke="#7fa696" stroke-opacity=".35"/>
 <rect x="901" y="146" width="558" height="44" rx="12" fill="#122a23"/><circle cx="925" cy="168" r="5" fill="#d7ff52"/><circle cx="945" cy="168" r="5" fill="#6c887c"/><circle cx="965" cy="168" r="5" fill="#6c887c"/>
 <rect x="901" y="218" width="154" height="614" rx="18" fill="#0d241d"/><rect x="1078" y="218" width="381" height="200" rx="20" fill="#102b23"/>
 <text x="1108" y="256" fill="#8ba89d" font-family="Arial" font-size="14" letter-spacing="2">RELEASE HEALTH</text><text x="1108" y="316" fill="#fff" font-family="Arial" font-size="48" font-weight="700">98.7%</text>
 <path d="M1110 374 C1170 334 1220 386 1278 337 S1390 334 1430 287" fill="none" stroke="url(#lime)" stroke-width="7" stroke-linecap="round"/>
 <rect x="1078" y="442" width="183" height="182" rx="20" fill="#e9efe9"/><rect x="1276" y="442" width="183" height="182" rx="20" fill="#d7ff52"/>
 <text x="1103" y="480" fill="#173329" font-family="Arial" font-size="13" letter-spacing="1.7">DECISIONS</text><text x="1103" y="548" fill="#071d18" font-family="Arial" font-size="54" font-weight="700">24</text>
 <text x="1301" y="480" fill="#173329" font-family="Arial" font-size="13" letter-spacing="1.7">RISK BUDGET</text><text x="1301" y="548" fill="#071d18" font-family="Arial" font-size="54" font-weight="700">Low</text>
 <rect x="1078" y="648" width="381" height="184" rx="20" fill="#0e251e"/><g fill="#d7ff52"><rect x="1104" y="690" width="240" height="8" rx="4"/><rect x="1104" y="722" width="302" height="8" rx="4" opacity=".42"/><rect x="1104" y="754" width="190" height="8" rx="4" opacity=".25"/></g>
 <g fill="#789388"><rect x="923" y="253" width="109" height="8" rx="4"/><rect x="923" y="288" width="78" height="8" rx="4"/><rect x="923" y="323" width="95" height="8" rx="4"/><rect x="923" y="394" width="110" height="96" rx="14" fill="#173c31"/><rect x="923" y="515" width="110" height="96" rx="14" fill="#173c31"/><rect x="923" y="636" width="110" height="96" rx="14" fill="#173c31"/></g>
</g>
<g transform="translate(90 190)" filter="url(#shadow)"><rect width="650" height="560" rx="36" fill="url(#glass)" stroke="#dfece6" stroke-opacity=".3"/><text x="46" y="72" fill="#d7ff52" font-family="Arial" font-size="14" letter-spacing="3">PRODUCT OPERATING SYSTEM</text><text x="46" y="152" fill="#fff" font-family="Arial" font-size="64" font-weight="700">Clarity before code.</text><text x="46" y="198" fill="#c5d7cf" font-family="Arial" font-size="20">One backlog. One decision record. One senior team.</text><g transform="translate(46 260)"><rect width="558" height="64" rx="16" fill="#eaf1ed"/><circle cx="32" cy="32" r="11" fill="#d7ff52"/><text x="62" y="39" fill="#092018" font-family="Arial" font-size="17" font-weight="700">Scope evidence complete</text><text x="470" y="39" fill="#587269" font-family="Arial" font-size="14">Today</text><rect y="82" width="558" height="64" rx="16" fill="#132b24"/><circle cx="32" cy="114" r="11" fill="#82ad9c"/><text x="62" y="121" fill="#fff" font-family="Arial" font-size="17" font-weight="700">Architecture review</text><text x="462" y="121" fill="#8ca89d" font-family="Arial" font-size="14">Wed</text><rect y="164" width="558" height="64" rx="16" fill="#132b24"/><circle cx="32" cy="196" r="11" fill="#82ad9c"/><text x="62" y="203" fill="#fff" font-family="Arial" font-size="17" font-weight="700">Pilot release</text><text x="460" y="203" fill="#8ca89d" font-family="Arial" font-size="14">Week 8</text></g></g>
</svg>