<svg xmlns="http://www.w3.org/2000/svg" viewBox="0 0 1600 1100">
 <defs><filter id="n"><feTurbulence baseFrequency=".8" numOctaves="3"/><feColorMatrix values="1 0 0 0 0 0 1 0 0 0 0 0 1 0 0 0 0 0 .18 0"/></filter><radialGradient id="g"><stop stop-color="#85a8ff"/><stop offset="1" stop-color="#070707"/></radialGradient></defs>
 <rect width="1600" height="1100" fill="#070707"/><rect width="1600" height="1100" fill="url(#g)" opacity=".75"/>
 <g fill="none" stroke="#ff4d00" stroke-width="3" opacity=".82" transform="translate(800 550)">
  <ellipse rx="430" ry="170" transform="rotate(39)"/><ellipse rx="320" ry="500" transform="rotate(87)"/><circle r="260"/><circle r="410" stroke-dasharray="6 18"/>
 </g>
 <g transform="translate(800 550)"><path d="M-240 -160 C-40 -420 250 -250 300 0 C350 250 30 410 -250 150 C-380 30 -350 -70 -240 -160Z" fill="#85a8ff" opacity=".76"/><path d="M-160 -80 C-30 -240 180 -150 190 20 C170 210 -40 250 -190 80Z" fill="#050505"/></g>
 <rect x="55" y="55" width="1490" height="990" fill="none" stroke="white" opacity=".18"/>
 <text x="80" y="110" fill="white" font-family="Arial" font-size="22" letter-spacing="7">TRIONN / SIGNAL 03</text>
 <text x="80" y="1010" fill="white" font-family="Arial" font-weight="700" font-size="82" letter-spacing="-4">ORBITAL / SYSTEMS</text>
 <rect width="1600" height="1100" filter="url(#n)" opacity=".25"/>
 </svg>