<svg xmlns="http://www.w3.org/2000/svg" viewBox="0 0 1400 1100"><defs><linearGradient id="b" x1="0" y1="0" x2="1" y2="1"><stop stop-color="#f5f1fb"/><stop offset="1" stop-color="#ded5f2"/></linearGradient></defs><rect width="1400" height="1100" fill="url(#b)"/><g transform="translate(90 90)"><rect width="1220" height="920" rx="34" fill="#fff"/><rect x="28" y="28" width="1164" height="58" rx="15" fill="#2c0c55"/><text x="60" y="66" fill="#fff" font-family="Arial" font-size="18" font-weight="700">Platform Health</text><text x="1010" y="66" fill="#cbbce0" font-family="Arial" font-size="14">Production · eu-north-1</text><rect x="28" y="112" width="180" height="780" rx="22" fill="#341263"/><g fill="#8e73b4"><rect x="58" y="158" width="112" height="9" rx="4"/><rect x="58" y="202" width="78" height="9" rx="4"/><rect x="58" y="246" width="98" height="9" rx="4"/></g><rect x="236" y="112" width="956" height="182" rx="22" fill="#f2eef8"/><text x="270" y="156" fill="#806f92" font-family="Arial" font-size="13" letter-spacing="2">SYSTEM STATUS</text><g fill="#2c0c55" font-family="Arial" font-size="50" font-weight="700"><text x="270" y="232">99.98%</text><text x="600" y="232">182 ms</text><text x="910" y="232">0.07%</text></g><g fill="#867594" font-family="Arial" font-size="14"><text x="270" y="263">availability</text><text x="600" y="263">p95 latency</text><text x="910" y="263">error rate</text></g><rect x="236" y="322" width="618" height="570" rx="22" fill="#2c0c55"/><text x="270" y="370" fill="#b5a3cb" font-family="Arial" font-size="13" letter-spacing="2">RELEASE PERFORMANCE</text><g stroke="#5b397f" stroke-width="1"><path d="M270 454H818M270 548H818M270 642H818M270 736H818"/></g><path d="M280 742 C370 690 430 520 520 576 S670 410 810 468" fill="none" stroke="#dcff4e" stroke-width="9" stroke-linecap="round"/><rect x="882" y="322" width="310" height="268" rx="22" fill="#dcff4e"/><text x="916" y="370" fill="#424c13" font-family="Arial" font-size="13" letter-spacing="2">NEXT RELEASE</text><text x="916" y="442" fill="#1b2208" font-family="Arial" font-size="36" font-weight="700">Ready</text><text x="916" y="478" fill="#4f5a1d" font-family="Arial" font-size="16">All quality budgets passed</text><rect x="916" y="520" width="152" height="36" rx="18" fill="#2c0c55"/><text x="944" y="544" fill="#fff" font-family="Arial" font-size="13">View release</text><rect x="882" y="618" width="310" height="274" rx="22" fill="#f2eef8"/><text x="916" y="666" fill="#806f92" font-family="Arial" font-size="13" letter-spacing="2">OWNERSHIP</text><g fill="#2c0c55" font-family="Arial" font-size="18" font-weight="700"><text x="916" y="724">Runbooks</text><text x="916" y="770">Alert routes</text><text x="916" y="816">Architecture notes</text></g><g fill="#dcff4e"><circle cx="1150" cy="718" r="8"/><circle cx="1150" cy="764" r="8"/><circle cx="1150" cy="810" r="8"/></g></g></svg>