<svg xmlns="http://www.w3.org/2000/svg" viewBox="0 0 1200 1400"><defs><linearGradient id="b" x1="0" y1="0" x2="1" y2="1"><stop stop-color="#0a241d"/><stop offset="1" stop-color="#102f27"/></linearGradient><filter id="s"><feDropShadow dx="0" dy="25" stdDeviation="24" flood-opacity=".28"/></filter></defs><rect width="1200" height="1400" fill="#d9dfd7"/><rect x="70" y="70" width="1060" height="1260" rx="42" fill="url(#b)" filter="url(#s)"/><text x="130" y="150" fill="#9fb8ae" font-family="Arial" font-size="18" letter-spacing="3">ONE OPERATING MODEL</text><text x="130" y="240" fill="#fff" font-family="Arial" font-size="68" font-weight="700">Helsinki ↔ Türkiye</text><path d="M210 510 C390 370 610 400 870 610" fill="none" stroke="#d7ff52" stroke-width="10" stroke-linecap="round"/><circle cx="210" cy="510" r="26" fill="#d7ff52"/><circle cx="870" cy="610" r="26" fill="#d7ff52"/><text x="130" y="600" fill="#fff" font-family="Arial" font-size="34" font-weight="700">Strategy close to the client.</text><text x="130" y="650" fill="#a9c1b8" font-family="Arial" font-size="22">Stakeholders, market context and product decisions.</text><text x="520" y="760" fill="#fff" font-family="Arial" font-size="34" font-weight="700">Senior delivery, without hand-off.</text><text x="520" y="810" fill="#a9c1b8" font-family="Arial" font-size="22">Design, software, AI and platform engineering.</text><g transform="translate(130 930)"><rect width="940" height="230" rx="28" fill="#163a30"/><text x="36" y="54" fill="#9fb8ae" font-family="Arial" font-size="15" letter-spacing="2">SHARED SYSTEM</text><g fill="#fff" font-family="Arial" font-size="24" font-weight="700"><text x="36" y="112">One backlog</text><text x="330" y="112">One decision record</text><text x="690" y="112">One quality bar</text></g><g fill="#d7ff52"><rect x="36" y="150" width="200" height="8" rx="4"/><rect x="330" y="150" width="250" height="8" rx="4"/><rect x="690" y="150" width="190" height="8" rx="4"/></g></g></svg>