<svg width="1200" height="1100" viewBox="0 0 1200 1100" fill="none" xmlns="http://www.w3.org/2000/svg">
<rect width="1200" height="1100" rx="56" fill="#D8E8DD"/>
<circle cx="980" cy="160" r="180" fill="#E8E2F4"/>
<rect x="168" y="210" width="864" height="560" rx="42" fill="#F8F5EE"/>
<rect x="224" y="270" width="752" height="380" rx="28" fill="#0A3B2B"/>
<rect x="270" y="320" width="660" height="280" rx="18" fill="#FDFBF6"/>
<rect x="312" y="365" width="260" height="24" rx="12" fill="#D9E5DE"/>
<rect x="312" y="418" width="560" height="16" rx="8" fill="#E7EBE7"/>
<rect x="312" y="455" width="420" height="16" rx="8" fill="#E7EBE7"/>
<rect x="312" y="510" width="150" height="54" rx="16" fill="#C6FF4A"/>
<rect x="480" y="510" width="180" height="54" rx="16" fill="#C8DDF3"/>
<rect x="678" y="510" width="194" height="54" rx="16" fill="#F0CEC5"/>
<rect x="496" y="652" width="210" height="26" rx="13" fill="#0A3B2B"/>
<!-- seated left -->
<circle cx="285" cy="792" r="62" fill="#B76445"/>
<path d="M228 778C234 707 345 706 348 799C322 774 292 752 248 760L228 778Z" fill="#16392E"/>
<path d="M170 1060C170 898 214 846 286 846C358 846 398 914 400 1060H170Z" fill="#C6FF4A"/>
<path d="M310 900L485 832" stroke="#B76445" stroke-width="30" stroke-linecap="round"/>
<circle cx="496" cy="828" r="22" fill="#B76445"/>
<!-- seated right -->
<circle cx="905" cy="790" r="62" fill="#D39A78"/>
<path d="M849 772C855 704 966 706 970 797C941 776 915 750 871 760L849 772Z" fill="#4D335A"/>
<path d="M790 1060C790 904 834 846 906 846C978 846 1024 912 1028 1060H790Z" fill="#DCC8F0"/>
<path d="M876 902L712 832" stroke="#D39A78" stroke-width="30" stroke-linecap="round"/>
<circle cx="702" cy="828" r="22" fill="#D39A78"/>
<path d="M515 858C564 838 632 838 686 858" stroke="#0A3B2B" stroke-width="18" stroke-linecap="round"/>
</svg>
