<svg xmlns="http://www.w3.org/2000/svg" viewBox="0 0 1400 1000"><defs><linearGradient id="bg" x1="0" y1="0" x2="1" y2="1"><stop stop-color="#0a211a"/><stop offset="1" stop-color="#183c31"/></linearGradient><filter id="s"><feDropShadow dx="0" dy="24" stdDeviation="28" flood-opacity=".35"/></filter></defs><rect width="1400" height="1000" fill="#b7dac2"/><g transform="translate(85 80)" filter="url(#s)"><rect width="1230" height="840" rx="34" fill="url(#bg)"/><rect x="28" y="28" width="1174" height="58" rx="15" fill="#102d25"/><text x="58" y="66" fill="#fff" font-family="Arial" font-size="18" font-weight="700">Operations Control</text><text x="1030" y="66" fill="#9db4aa" font-family="Arial" font-size="14">Live network · 08:42</text><rect x="28" y="112" width="180" height="700" rx="22" fill="#0e2a22"/><g fill="#78988c"><rect x="58" y="160" width="112" height="9" rx="4"/><rect x="58" y="205" width="82" height="9" rx="4"/><rect x="58" y="250" width="105" height="9" rx="4"/></g><rect x="238" y="112" width="964" height="176" rx="22" fill="#e7ede9"/><text x="274" y="154" fill="#51695f" font-family="Arial" font-size="13" letter-spacing="2">TODAY'S NETWORK</text><text x="274" y="224" fill="#0a211a" font-family="Arial" font-size="56" font-weight="700">184 jobs</text><text x="612" y="224" fill="#0a211a" font-family="Arial" font-size="56" font-weight="700">96.4%</text><text x="875" y="224" fill="#0a211a" font-family="Arial" font-size="56" font-weight="700">12 min</text><g fill="#557066" font-family="Arial" font-size="14"><text x="274" y="254">active</text><text x="612" y="254">on schedule</text><text x="875" y="254">dispatch prep</text></g><rect x="238" y="314" width="612" height="498" rx="22" fill="#102f27"/><text x="274" y="360" fill="#91aaa0" font-family="Arial" font-size="13" letter-spacing="2">FIELD ACTIVITY</text><g stroke="#315147" stroke-width="1"><path d="M274 430H812M274 520H812M274 610H812M274 700H812"/></g><path d="M286 690 C380 650 410 560 500 586 S650 420 800 464" fill="none" stroke="#d7ff52" stroke-width="8" stroke-linecap="round"/><rect x="874" y="314" width="328" height="240" rx="22" fill="#d7ff52"/><text x="908" y="360" fill="#173329" font-family="Arial" font-size="13" letter-spacing="2">NEXT DECISION</text><text x="908" y="425" fill="#071d18" font-family="Arial" font-size="32" font-weight="700">Rebalance north zone</text><rect x="908" y="477" width="168" height="38" rx="19" fill="#071d18"/><text x="936" y="502" fill="#fff" font-family="Arial" font-size="14">Review action</text><rect x="874" y="578" width="328" height="234" rx="22" fill="#e7ede9"/><text x="908" y="626" fill="#51695f" font-family="Arial" font-size="13" letter-spacing="2">ROLE STATUS</text><g fill="#0a211a" font-family="Arial" font-size="17" font-weight="700"><text x="908" y="682">Dispatch</text><text x="908" y="728">Field teams</text><text x="908" y="774">Finance</text></g><g fill="#4d6b60"><circle cx="1150" cy="676" r="8"/><circle cx="1150" cy="722" r="8"/><circle cx="1150" cy="768" r="8"/></g></g></svg>