<svg xmlns="http://www.w3.org/2000/svg" viewBox="0 0 1200 800"><rect width="1200" height="800" fill="#fff0ec"/><rect x="105" y="80" width="990" height="640" rx="44" fill="#f4f0e6"/><rect x="105" y="80" width="990" height="80" rx="44" fill="#fff"/><rect x="155" y="111" width="132" height="17" rx="8" fill="#f0442e"/><rect x="155" y="205" width="560" height="465" rx="32" fill="#062a1f"/><circle cx="435" cy="415" r="145" fill="#dfff3f"/><path d="M375 488c17-84 92-131 170-107 63 19 99 84 77 147" fill="none" stroke="#062a1f" stroke-width="30" stroke-linecap="round"/><rect x="755" y="205" width="290" height="210" rx="30" fill="#efe9ff"/><rect x="755" y="450" width="290" height="220" rx="30" fill="#c9f7d5"/><rect x="800" y="255" width="160" height="15" rx="7" fill="#2d0b59"/><rect x="800" y="292" width="196" height="11" rx="5" fill="#2d0b59" opacity=".3"/><rect x="800" y="500" width="115" height="15" rx="7" fill="#062a1f"/><rect x="800" y="542" width="190" height="72" rx="18" fill="#fff"/></svg>