<svg xmlns="http://www.w3.org/2000/svg" viewBox="0 0 1400 1000"><rect width="1400" height="1000" fill="#dcd7ee"/><g transform="translate(75 70)"><rect width="1250" height="860" rx="34" fill="#171326"/><rect x="26" y="26" width="1198" height="58" rx="14" fill="#211b35"/><text x="56" y="64" fill="#fff" font-family="Arial" font-size="18" font-weight="700">Evidence Workspace</text><rect x="26" y="108" width="250" height="726" rx="20" fill="#201a33"/><text x="58" y="154" fill="#8e86a8" font-family="Arial" font-size="13" letter-spacing="2">APPROVED SOURCES</text><g fill="#f2f0fa"><rect x="58" y="190" width="178" height="72" rx="14"/><rect x="58" y="278" width="178" height="72" rx="14"/><rect x="58" y="366" width="178" height="72" rx="14"/></g><g fill="#463c68"><rect x="78" y="214" width="118" height="8" rx="4"/><rect x="78" y="302" width="96" height="8" rx="4"/><rect x="78" y="390" width="128" height="8" rx="4"/></g><rect x="300" y="108" width="610" height="726" rx="20" fill="#f4f2fb"/><text x="342" y="158" fill="#6e6781" font-family="Arial" font-size="13" letter-spacing="2">ANSWER WITH EVIDENCE</text><text x="342" y="222" fill="#181329" font-family="Arial" font-size="32" font-weight="700">What changed in the current policy?</text><rect x="342" y="270" width="526" height="150" rx="18" fill="#fff"/><g fill="#8a849a"><rect x="370" y="304" width="430" height="9" rx="4"/><rect x="370" y="336" width="384" height="9" rx="4"/><rect x="370" y="368" width="448" height="9" rx="4"/></g><rect x="342" y="450" width="526" height="318" rx="18" fill="#e4ff5c"/><text x="370" y="492" fill="#26300b" font-family="Arial" font-size="13" letter-spacing="2">CITED RESPONSE</text><text x="370" y="548" fill="#11170a" font-family="Arial" font-size="25" font-weight="700">Three requirements changed.</text><g fill="#4a542d"><rect x="370" y="586" width="420" height="8" rx="4"/><rect x="370" y="618" width="382" height="8" rx="4"/><rect x="370" y="650" width="448" height="8" rx="4"/></g><rect x="370" y="700" width="150" height="38" rx="19" fill="#171326"/><text x="398" y="725" fill="#fff" font-family="Arial" font-size="14">3 source citations</text><rect x="934" y="108" width="290" height="348" rx="20" fill="#211b35"/><text x="968" y="154" fill="#8e86a8" font-family="Arial" font-size="13" letter-spacing="2">EVALUATION</text><text x="968" y="224" fill="#fff" font-family="Arial" font-size="54" font-weight="700">92%</text><text x="968" y="254" fill="#a59dbb" font-family="Arial" font-size="15">grounded answers</text><path d="M970 384 C1030 330 1080 388 1138 314 S1190 320 1200 280" fill="none" stroke="#e4ff5c" stroke-width="7" stroke-linecap="round"/><rect x="934" y="480" width="290" height="354" rx="20" fill="#f4f2fb"/><text x="968" y="528" fill="#6e6781" font-family="Arial" font-size="13" letter-spacing="2">HUMAN REVIEW</text><g fill="#211b35"><rect x="968" y="568" width="222" height="58" rx="13"/><rect x="968" y="642" width="222" height="58" rx="13"/><rect x="968" y="716" width="222" height="58" rx="13"/></g><g fill="#e4ff5c"><circle cx="1000" cy="597" r="8"/><circle cx="1000" cy="671" r="8"/><circle cx="1000" cy="745" r="8"/></g></g></svg>