<svg xmlns="http://www.w3.org/2000/svg" viewBox="0 0 1400 1000"><rect width="1400" height="1000" fill="#f0ddd6"/><g transform="translate(70 70)"><rect width="1260" height="860" rx="36" fill="#f7f3ee"/><rect x="28" y="28" width="1204" height="60" rx="15" fill="#fff"/><text x="58" y="67" fill="#271b18" font-family="Arial" font-size="18" font-weight="700">Commerce Control</text><text x="1060" y="67" fill="#826e68" font-family="Arial" font-size="14">4 markets · 128 SKUs</text><rect x="28" y="116" width="250" height="716" rx="22" fill="#2d211e"/><text x="62" y="164" fill="#9f8d86" font-family="Arial" font-size="13" letter-spacing="2">CATALOGUE</text><g fill="#fff"><rect x="62" y="204" width="174" height="9" rx="4"/><rect x="62" y="248" width="128" height="9" rx="4"/><rect x="62" y="292" width="154" height="9" rx="4"/></g><rect x="306" y="116" width="926" height="170" rx="22" fill="#ddff54"/><text x="342" y="160" fill="#4b5328" font-family="Arial" font-size="13" letter-spacing="2">RELEASE READINESS</text><text x="342" y="232" fill="#1d220d" font-family="Arial" font-size="58" font-weight="700">96%</text><g transform="translate(650 154)"><rect width="520" height="18" rx="9" fill="#b6ce43"/><rect width="472" height="18" rx="9" fill="#2d211e"/></g><rect x="306" y="314" width="570" height="518" rx="22" fill="#fff"/><text x="342" y="360" fill="#826e68" font-family="Arial" font-size="13" letter-spacing="2">PRODUCT SYSTEM</text><g transform="translate(342 402)"><rect width="220" height="166" rx="18" fill="#e7e0d9"/><rect x="244" width="220" height="166" rx="18" fill="#d8c9c2"/><rect y="190" width="220" height="166" rx="18" fill="#ddff54"/><rect x="244" y="190" width="220" height="166" rx="18" fill="#2d211e"/><g fill="#6d5d57"><rect x="24" y="116" width="130" height="8" rx="4"/><rect x="268" y="116" width="110" height="8" rx="4"/></g><g fill="#313714"><rect x="24" y="306" width="138" height="8" rx="4"/></g><g fill="#fff"><rect x="268" y="306" width="124" height="8" rx="4"/></g></g><rect x="904" y="314" width="328" height="250" rx="22" fill="#2d211e"/><text x="938" y="360" fill="#a8958d" font-family="Arial" font-size="13" letter-spacing="2">MARKETS</text><g fill="#fff" font-family="Arial" font-size="20" font-weight="700"><text x="938" y="422">Finland</text><text x="938" y="466">Sweden</text><text x="938" y="510">Germany</text></g><g fill="#ddff54"><circle cx="1180" cy="416" r="7"/><circle cx="1180" cy="460" r="7"/><circle cx="1180" cy="504" r="7"/></g><rect x="904" y="592" width="328" height="240" rx="22" fill="#e5ddd7"/><text x="938" y="640" fill="#826e68" font-family="Arial" font-size="13" letter-spacing="2">CONTENT MODEL</text><text x="938" y="708" fill="#2d211e" font-family="Arial" font-size="44" font-weight="700">Shared</text><text x="938" y="748" fill="#6e5e58" font-family="Arial" font-size="17">components, local markets</text></g></svg>