<svg xmlns="http://www.w3.org/2000/svg" viewBox="0 0 1200 800"><rect width="1200" height="800" fill="#efe9ff"/><circle cx="156" cy="105" r="120" fill="#dfff3f"/><path d="M97 114c48-82 131-93 183-24" fill="none" stroke="#062a1f" stroke-width="22" stroke-linecap="round"/><rect x="150" y="130" width="900" height="560" rx="42" fill="#2d0b59"/><rect x="205" y="185" width="790" height="72" rx="22" fill="#fff"/><rect x="245" y="212" width="210" height="17" rx="8" fill="#2d0b59"/><rect x="205" y="292" width="350" height="330" rx="26" fill="#f7f2ff"/><rect x="595" y="292" width="400" height="150" rx="26" fill="#c9f7d5"/><rect x="595" y="472" width="400" height="150" rx="26" fill="#fff0ec"/><rect x="250" y="342" width="205" height="13" rx="6" fill="#2d0b59"/><rect x="250" y="382" width="250" height="10" rx="5" fill="#2d0b59" opacity=".28"/><rect x="250" y="410" width="228" height="10" rx="5" fill="#2d0b59" opacity=".28"/><rect x="250" y="438" width="240" height="10" rx="5" fill="#2d0b59" opacity=".28"/><circle cx="650" cy="345" r="24" fill="#062a1f"/><rect x="694" y="333" width="208" height="12" rx="6" fill="#062a1f"/><circle cx="650" cy="525" r="24" fill="#f0442e"/><rect x="694" y="513" width="236" height="12" rx="6" fill="#f0442e"/></svg>